<svg width="32" height="33" viewBox="0 0 32 33" fill="none" xmlns="http://www.w3.org/2000/svg">
<path fill-rule="evenodd" clip-rule="evenodd" d="M25.7154 0.97931C25.5279 0.791839 25.2736 0.686523 25.0084 0.686523C24.7433 0.686523 24.489 0.791839 24.3014 0.97931L21.0074 4.27331L28.4214 11.6873L31.7154 8.39531C31.8086 8.30242 31.8824 8.19207 31.9328 8.07058C31.9833 7.94909 32.0092 7.81884 32.0092 7.68731C32.0092 7.55578 31.9833 7.42553 31.9328 7.30404C31.8824 7.18255 31.8086 7.0722 31.7154 6.97931L25.7154 0.97931ZM27.0074 13.1013L19.5934 5.68731L6.59342 18.6873H7.00742C7.27264 18.6873 7.527 18.7927 7.71453 18.9802C7.90207 19.1677 8.00742 19.4221 8.00742 19.6873V20.6873H9.00742C9.27264 20.6873 9.52699 20.7927 9.71453 20.9802C9.90207 21.1677 10.0074 21.4221 10.0074 21.6873V22.6873H11.0074C11.2726 22.6873 11.527 22.7927 11.7145 22.9802C11.9021 23.1677 12.0074 23.4221 12.0074 23.6873V24.6873H13.0074C13.2726 24.6873 13.527 24.7927 13.7145 24.9802C13.9021 25.1677 14.0074 25.4221 14.0074 25.6873V26.1013L27.0074 13.1013ZM12.0714 28.0373C12.0293 27.9254 12.0077 27.8069 12.0074 27.6873V26.6873H11.0074C10.7422 26.6873 10.4879 26.582 10.3003 26.3944C10.1128 26.2069 10.0074 25.9525 10.0074 25.6873V24.6873H9.00742C8.74221 24.6873 8.48785 24.582 8.30032 24.3944C8.11278 24.2069 8.00742 23.9525 8.00742 23.6873V22.6873H7.00742C6.74221 22.6873 6.48785 22.582 6.30032 22.3944C6.11278 22.2069 6.00742 21.9525 6.00742 21.6873V20.6873H5.00742C4.88787 20.6871 4.76932 20.6654 4.65742 20.6233L4.29942 20.9793C4.20412 21.0753 4.12928 21.1896 4.07942 21.3153L0.0794246 31.3153C0.00668331 31.497 -0.0111237 31.6961 0.0282112 31.8879C0.0675461 32.0796 0.162293 32.2556 0.300706 32.394C0.439119 32.5324 0.615111 32.6272 0.806864 32.6665C0.998616 32.7059 1.1977 32.688 1.37942 32.6153L11.3794 28.6153C11.5051 28.5655 11.6195 28.4906 11.7154 28.3953L12.0714 28.0393V28.0373Z" fill="#FF6A13"/>
</svg>
