<svg width="24" height="25" viewBox="0 0 24 25" fill="none" xmlns="http://www.w3.org/2000/svg">
<path fill-rule="evenodd" clip-rule="evenodd" d="M24 12.6992C24 15.8818 22.7357 18.9341 20.4853 21.1845C18.2348 23.4349 15.1826 24.6992 12 24.6992C8.8174 24.6992 5.76516 23.4349 3.51472 21.1845C1.26428 18.9341 0 15.8818 0 12.6992C0 9.51662 1.26428 6.46437 3.51472 4.21394C5.76516 1.9635 8.8174 0.699219 12 0.699219C15.1826 0.699219 18.2348 1.9635 20.4853 4.21394C22.7357 6.46437 24 9.51662 24 12.6992ZM12.75 17.9492C12.75 18.1481 12.671 18.3389 12.5303 18.4795C12.3897 18.6202 12.1989 18.6992 12 18.6992C11.8011 18.6992 11.6103 18.6202 11.4697 18.4795C11.329 18.3389 11.25 18.1481 11.25 17.9492V9.25972L8.031 12.4802C7.89017 12.621 7.69916 12.7002 7.5 12.7002C7.30084 12.7002 7.10983 12.621 6.969 12.4802C6.82817 12.3394 6.74905 12.1484 6.74905 11.9492C6.74905 11.7501 6.82817 11.559 6.969 11.4182L11.469 6.91822C11.5387 6.84837 11.6214 6.79296 11.7125 6.75515C11.8037 6.71734 11.9013 6.69788 12 6.69788C12.0987 6.69788 12.1963 6.71734 12.2874 6.75515C12.3786 6.79296 12.4613 6.84837 12.531 6.91822L17.031 11.4182C17.1718 11.559 17.2509 11.7501 17.2509 11.9492C17.2509 12.1484 17.1718 12.3394 17.031 12.4802C16.8902 12.621 16.6992 12.7002 16.5 12.7002C16.3008 12.7002 16.1098 12.621 15.969 12.4802L12.75 9.25972V17.9492Z" fill="#FF6A13"/>
</svg>
