<svg width="24" height="25" viewBox="0 0 24 25" fill="none" xmlns="http://www.w3.org/2000/svg">
<path d="M17.7584 14.2909C17.7116 14.2685 15.962 13.4069 15.651 13.295C15.5241 13.2494 15.3881 13.2049 15.2435 13.2049C15.0073 13.2049 14.8088 13.3227 14.6542 13.5539C14.4794 13.8137 13.9503 14.4322 13.7868 14.617C13.7655 14.6413 13.7363 14.6705 13.7189 14.6705C13.7032 14.6705 13.4324 14.559 13.3505 14.5234C11.4736 13.7081 10.0489 11.7475 9.85357 11.4169C9.82567 11.3693 9.8245 11.3477 9.82427 11.3477C9.83112 11.3226 9.89424 11.2593 9.92681 11.2266C10.0221 11.1324 10.1254 11.0081 10.2253 10.8878C10.2726 10.8309 10.3199 10.7738 10.3664 10.7201C10.5114 10.5515 10.5759 10.4205 10.6507 10.2689L10.6899 10.1901C10.8726 9.82724 10.7166 9.52101 10.6661 9.42213C10.6248 9.33937 9.88598 7.55636 9.80744 7.36904C9.61855 6.91701 9.36897 6.70654 9.02214 6.70654C8.98996 6.70654 9.02214 6.70654 8.88718 6.71223C8.72284 6.71917 7.8279 6.83698 7.43222 7.08641C7.0126 7.35096 6.30273 8.19423 6.30273 9.67724C6.30273 11.012 7.14975 12.2722 7.51341 12.7515C7.52245 12.7636 7.53905 12.7881 7.56312 12.8233C8.95583 14.8573 10.692 16.3646 12.452 17.0677C14.1464 17.7445 14.9488 17.8228 15.405 17.8228H15.405C15.5967 17.8228 15.7502 17.8077 15.8855 17.7944L15.9714 17.7862C16.5567 17.7343 17.8431 17.0678 18.1357 16.2546C18.3662 15.6142 18.4269 14.9145 18.2736 14.6605C18.1686 14.4878 17.9875 14.401 17.7584 14.2909Z" fill="#FF6A13"/>
<path d="M12.213 0.5C5.71307 0.5 0.424969 5.74836 0.424969 12.1995C0.424969 14.286 0.983358 16.3284 2.04115 18.1159L0.0165014 24.0883C-0.0212129 24.1996 0.00683904 24.3227 0.0892027 24.4066C0.148657 24.4673 0.229307 24.5 0.31167 24.5C0.343229 24.5 0.375021 24.4952 0.406034 24.4854L6.63357 22.5064C8.33772 23.417 10.2638 23.8976 12.2131 23.8976C18.7124 23.8977 24 18.6498 24 12.1995C24 5.74836 18.7124 0.5 12.213 0.5ZM12.213 21.4606C10.3788 21.4606 8.60227 20.9309 7.07515 19.9289C7.0238 19.8951 6.96419 19.8778 6.90419 19.8778C6.87248 19.8778 6.84068 19.8826 6.80975 19.8925L3.69014 20.8841L4.6972 17.913C4.72977 17.8169 4.71349 17.7108 4.65349 17.6288C3.49058 16.0398 2.87585 14.1625 2.87585 12.1995C2.87585 7.09221 7.06448 2.93709 12.2129 2.93709C17.3608 2.93709 21.5489 7.09221 21.5489 12.1995C21.549 17.3061 17.3609 21.4606 12.213 21.4606Z" fill="#FF6A13"/>
</svg>
