<svg width="24" height="25" viewBox="0 0 24 25" fill="none" xmlns="http://www.w3.org/2000/svg">
<path d="M23 12.5C23 18.5751 18.0751 23.5 12 23.5C5.92487 23.5 1 18.5751 1 12.5C1 6.42487 5.92487 1.5 12 1.5C18.0751 1.5 23 6.42487 23 12.5Z" stroke="#2C2A29" stroke-width="2"/>
<path d="M15 16.2271C14.6341 16.479 14.2012 16.6679 13.7012 16.7939C13.2012 16.9313 12.6768 17 12.128 17C11.4207 17 10.8232 16.8969 10.3354 16.6908C9.84756 16.4733 9.44512 16.1698 9.12805 15.7805C8.82317 15.3798 8.59756 14.9046 8.45122 14.355C8.31707 13.7939 8.25 13.1756 8.25 12.5C8.25 11.0458 8.59146 9.93511 9.27439 9.16794C9.95732 8.38931 10.939 8 12.2195 8C12.8049 8 13.2988 8.0458 13.7012 8.1374C14.1159 8.21756 14.4878 8.33779 14.8171 8.49809L14.3963 9.68321C14.1159 9.53435 13.8049 9.41985 13.4634 9.33969C13.122 9.24809 12.7561 9.20229 12.3659 9.20229C10.6341 9.20229 9.76829 10.3015 9.76829 12.5C9.76829 12.9351 9.81098 13.3531 9.89634 13.7538C9.9939 14.1431 10.1463 14.4924 10.3537 14.8015C10.5732 15.0992 10.8537 15.3397 11.1951 15.5229C11.5488 15.7061 11.9817 15.7977 12.4939 15.7977C12.9329 15.7977 13.3232 15.7347 13.6646 15.6088C14.0183 15.4828 14.3049 15.3397 14.5244 15.1794L15 16.2271Z" fill="#2C2A29"/>
</svg>
