<svg width="24" height="25" viewBox="0 0 24 25" fill="none" xmlns="http://www.w3.org/2000/svg">
<path d="M13.4115 1.0027C12.9771 0.771065 12.4923 0.649902 12 0.649902C11.5077 0.649902 11.0229 0.771065 10.5885 1.0027L1.5885 5.8027C1.10862 6.05858 0.707321 6.44008 0.427521 6.90641C0.147721 7.37275 -5.437e-05 7.90637 1.50058e-08 8.4502V8.9197L10.0635 14.8192L12 13.7422L13.9365 14.8177L24 8.9227V8.4502C24.0001 7.90637 23.8523 7.37275 23.5725 6.90641C23.2927 6.44008 22.8914 6.05858 22.4115 5.8027L13.4115 1.0027ZM24 10.6597L15.4605 15.6652L24 20.4082V10.6582V10.6597ZM23.9115 22.0762L12 15.4582L0.0885 22.0762C0.250505 22.7257 0.625112 23.3024 1.1527 23.7145C1.6803 24.1266 2.33056 24.3504 3 24.3502H21C21.6694 24.3504 22.3197 24.1266 22.8473 23.7145C23.3749 23.3024 23.7495 22.7257 23.9115 22.0762ZM1.50058e-08 20.4097L8.5395 15.6652L1.50058e-08 10.6597V20.4097Z" fill="#FF6A13"/>
</svg>
