<svg width="24" height="23" viewBox="0 0 24 23" fill="none" xmlns="http://www.w3.org/2000/svg">
<path fill-rule="evenodd" clip-rule="evenodd" d="M3.40131 0.969838C3.64731 0.723809 3.94281 0.532901 4.26821 0.409778C4.59362 0.286655 4.94148 0.234133 5.28873 0.255694C5.63598 0.277255 5.97467 0.372407 6.28234 0.534839C6.59002 0.69727 6.85963 0.923267 7.07331 1.19784L9.59481 4.44084C10.0583 5.03484 10.2218 5.81034 10.0388 6.54084L9.26931 9.62034C9.22929 9.78013 9.23133 9.94756 9.27523 10.1063C9.31913 10.2651 9.40339 10.4098 9.51981 10.5263L12.9758 13.9808C13.0923 14.0973 13.237 14.1815 13.3958 14.2254C13.5546 14.2693 13.722 14.2714 13.8818 14.2313L16.9598 13.4618C17.3208 13.3717 17.6976 13.3648 18.0617 13.4417C18.4258 13.5186 18.7676 13.6773 19.0613 13.9058L22.3043 16.4273C23.4698 17.3333 23.5778 19.0568 22.5338 20.0993L21.0788 21.5543C20.0393 22.5938 18.4838 23.0513 17.0333 22.5413C13.3229 21.2354 9.95414 19.1108 7.17681 16.3253C4.39077 13.5482 2.26573 10.1794 0.959309 6.46884C0.449309 5.01834 0.906809 3.46284 1.94631 2.42184L3.40131 0.968338V0.969838Z" fill="#FF6A13"/>
</svg>
