<svg width="24" height="25" viewBox="0 0 24 25" fill="none" xmlns="http://www.w3.org/2000/svg">
<path d="M21.8008 0.5H2.19922C0.984375 0.5 0 1.48438 0 2.69922V22.3008C0 23.5156 0.984375 24.5 2.19922 24.5H21.8008C23.0156 24.5 24 23.5156 24 22.3008V2.69922C24 1.48438 23.0156 0.5 21.8008 0.5ZM19.0508 14.5898C20.4922 15.9297 20.7891 16.5781 20.8398 16.6602C21.4375 17.6484 20.1797 17.7266 20.1797 17.7266L17.7734 17.7617C17.7734 17.7617 17.2578 17.8633 16.5781 17.3945C15.6797 16.7773 14.8281 15.1719 14.1719 15.3828C13.5 15.5938 13.5195 17.0391 13.5195 17.0391C13.5195 17.0391 13.5273 17.293 13.375 17.4609C13.207 17.6367 12.8828 17.6172 12.8828 17.6172H11.8086C11.8086 17.6172 9.43359 17.8164 7.34375 15.6406C5.0625 13.2656 3.05078 8.57812 3.05078 8.57812C3.05078 8.57812 2.93359 8.28516 3.05859 8.13672C3.19922 7.96875 3.58594 7.96484 3.58594 7.96484L6.15625 7.94922C6.15625 7.94922 6.39844 7.99219 6.57422 8.11719C6.71875 8.22266 6.79688 8.42188 6.79688 8.42188C6.79688 8.42188 7.21484 9.47266 7.76172 10.4258C8.83984 12.2812 9.33984 12.6875 9.70312 12.4883C10.2344 12.1953 10.0742 9.86328 10.0742 9.86328C10.0742 9.86328 10.0859 9.01562 9.80859 8.63672C9.59375 8.34766 9.1875 8.26172 9.00781 8.23828C8.86328 8.21875 9.10156 7.88281 9.41016 7.73047C9.87109 7.50781 10.6875 7.49219 11.6562 7.50391C12.4062 7.51172 12.625 7.55859 12.918 7.62891C13.8047 7.84375 13.5039 8.67188 13.5039 10.6523C13.5039 11.2891 13.3906 12.1797 13.8477 12.4766C14.0469 12.6055 14.5273 12.4961 15.7305 10.4492C16.3047 9.48047 16.7305 8.33984 16.7305 8.33984C16.7305 8.33984 16.8242 8.13672 16.9727 8.05078C17.1211 7.96094 17.3203 7.98828 17.3203 7.98828L20.0273 7.97266C20.0273 7.97266 20.8398 7.875 20.9727 8.24219C21.1094 8.62891 20.668 9.52734 19.5625 11C17.7461 13.418 17.5469 13.1914 19.0508 14.5898Z" fill="#FF6A13"/>
</svg>
