<svg width="24" height="24" viewBox="0 0 24 24" fill="none" xmlns="http://www.w3.org/2000/svg">
<path d="M11.5836 0.0169323C4.43446 0.391782 -0.284809 6.01796 0.0133579 13.1126C0.143592 16.218 1.38767 18.8901 1.68241 21.8373C1.75781 22.6007 1.53847 23.543 2.41583 23.8766C3.4954 24.2859 5.15075 23.5981 6.05553 22.9687C6.36398 22.7589 6.65872 22.5148 6.88492 22.2121C7.82054 22.8346 8.70819 23.4364 9.82204 23.7047C14.7264 24.8842 20.1002 22.1846 22.489 17.8481C26.9787 9.70111 20.9091 -0.471404 11.5836 0.0169323ZM8.80758 17.0193C8.42031 17.3219 8.04674 17.7346 7.61834 17.9719C6.99801 18.3055 6.80609 17.9581 6.57304 17.4079C5.83962 15.6574 5.75051 12.6758 6.17891 10.8429C6.75468 8.34959 8.67735 6.15552 11.3197 5.92167C13.993 5.68438 16.4743 7.04622 17.5949 9.50509C20.0763 14.9765 13.7256 20.3792 8.80758 17.0227V17.0193Z" fill="#FF6A13"/>
</svg>
