<svg width="260" height="360" viewBox="0 0 260 360" fill="none" xmlns="http://www.w3.org/2000/svg">
<path d="M230.646 256.232C210.499 249.021 164.315 243.565 164.315 168.402H132.767H127.368H95.82C95.82 243.565 49.6356 249.021 29.4883 256.232C29.4883 307.356 114.572 308.927 127.368 313.693V315.351C127.368 315.351 128.363 315.149 130.067 314.618C131.772 315.149 132.767 315.351 132.767 315.351V313.693C145.563 308.929 230.646 307.356 230.646 256.232Z" fill="#F3D8B6"/>
<path d="M164.316 168.403H132.768H130.203V314.659C131.821 315.157 132.768 315.351 132.768 315.351V313.693C145.564 308.929 230.647 307.356 230.647 256.232C210.5 249.022 164.316 243.565 164.316 168.403Z" fill="#EEC8A2"/>
<path d="M130.071 192.96C100.44 192.96 77.8232 168.007 67.6886 149.295C57.5539 130.584 50.5406 74.3434 72.3727 44.7144C93.7515 15.6995 130.071 18.986 130.071 18.986C130.071 18.986 166.389 15.6995 187.768 44.7144C209.598 74.3434 202.583 130.584 192.447 149.295C182.31 168.007 159.697 192.96 130.071 192.96Z" fill="#F3DBC4"/>
<path d="M187.77 44.7144C167.118 16.6892 132.54 18.7982 130.205 18.9752V192.955C159.765 192.881 182.327 167.978 192.449 149.295C202.583 130.584 209.6 74.3445 187.77 44.7144Z" fill="#EDCEAE"/>
<path d="M167.49 27.9733C167.49 27.9733 141.126 -7.44178 124.634 1.42468C82.4928 24.0803 76.9084 21.2461 67.4538 24.5304C44.5283 32.4924 43.9272 21.7296 46.8154 39.3988C56.3985 98.0254 46.2142 125.027 64.0421 103.236C81.87 81.4452 87.8137 86.5902 133.196 81.6373C178.579 76.6844 149.662 56.4216 173.433 72.8086C197.203 89.1956 200.328 118.929 204.289 118.929C208.251 118.929 217.068 62.1688 211.07 44.5536C198.267 6.94962 167.49 27.9733 167.49 27.9733Z" fill="#FF6A13"/>
<path d="M211.072 44.5547C198.269 6.94962 167.492 27.9744 167.492 27.9744C167.492 27.9744 146.451 -0.287093 130.205 0.00539808V81.9525C131.19 81.8499 132.173 81.7495 133.198 81.6373C178.579 76.6855 149.664 56.4216 173.434 72.8086C197.206 89.1967 200.329 118.929 204.29 118.929C208.253 118.93 217.069 62.171 211.072 44.5547Z" fill="#B65217"/>
<path d="M259.565 316.092L259.43 359.999H0.4375L0.572413 316.092C0.572413 283.248 19.3274 254.612 44.3975 239.555C50.9197 235.626 69.9661 232.615 77.6874 230.709C84.1125 229.103 130.187 275.787 130.187 275.787C130.187 275.787 179.263 229.103 185.688 230.709C193.409 232.615 209.219 235.624 215.74 239.555C240.81 254.612 259.565 283.248 259.565 316.092Z" fill="#0097A9"/>
<path d="M215.623 239.555C209.101 235.626 193.292 232.616 185.571 230.71C179.146 229.104 130.187 275.789 130.187 275.789L130.086 360H259.448V316.093C259.448 283.248 240.693 254.612 215.623 239.555Z" fill="#277997"/>
<path d="M219.057 315.858H162.934V328.089H219.057V315.858Z" fill="#B7CAE9"/>
<path d="M212.939 323.773H169.051V351.835H212.939V323.773Z" fill="#B7CAE9"/>
<path d="M175.394 107.463H145.509C144.23 107.463 142.966 107.725 141.806 108.232L130.07 112.413L118.334 108.232C117.173 107.725 115.909 107.463 114.63 107.463H84.7468C78.8009 107.463 76.748 117.688 76.748 117.688C76.748 131.214 86.6679 142.18 102.388 142.18C111.974 142.18 121.178 131.991 126.833 123.744H133.309C138.964 131.991 148.169 142.18 157.754 142.18C173.474 142.18 183.394 131.214 183.394 117.688C183.392 117.689 181.34 107.463 175.394 107.463Z" fill="#83CDD6"/>
<path d="M175.394 107.463H145.51C144.231 107.463 142.967 107.725 141.806 108.232L130.205 112.365V123.745H133.308C138.964 131.992 148.168 142.181 157.753 142.181C173.473 142.181 183.393 131.215 183.393 117.689C183.393 117.689 181.34 107.463 175.394 107.463Z" fill="#59B8C5"/>
<path d="M207.307 123.726C210.937 114.146 209.339 104.66 203.739 102.538C198.138 100.416 190.655 106.461 187.025 116.041C183.396 125.621 184.993 135.108 190.594 137.23C196.195 139.352 203.678 133.306 207.307 123.726Z" fill="#EDCEAE"/>
<path d="M52.8196 123.724C56.4493 133.304 63.9321 139.35 69.5328 137.228C75.1335 135.106 76.7313 125.619 73.1015 116.039C69.4718 106.459 61.989 100.413 56.3883 102.536C50.7876 104.658 49.1898 114.144 52.8196 123.724Z" fill="#F3DBC4"/>
</svg>
