<svg width="234" height="360" viewBox="0 0 234 360" fill="none" xmlns="http://www.w3.org/2000/svg">
<path d="M226.84 140.247C226.84 196.01 183.248 228.722 183.248 228.722L117.001 172.412L50.7641 228.722C50.7641 228.722 7.16211 194.355 7.16211 140.247C7.16211 94.183 20.9217 55.108 45.2245 29.9912C49.811 25.2458 54.7748 21.0068 60.0861 17.3137C76.0595 6.19481 95.2297 0 117.001 0C138.782 0 157.942 6.19481 173.916 17.3137C178.711 20.6394 183.218 24.4219 187.417 28.6014C212.564 53.6586 226.84 93.3391 226.84 140.247Z" fill="#FF6A13"/>
<path d="M187.416 28.6014C183.217 24.4219 178.71 20.6394 173.915 17.3137C157.941 6.19481 138.781 0 117 0V172.412L183.247 228.722C183.247 228.722 226.839 196.01 226.839 140.247C226.839 93.3391 212.563 53.6586 187.416 28.6014Z" fill="#BF5111"/>
<path d="M145.124 183.14H118.435H117.188H116.811H115.564H88.8752C88.8752 257.152 52.709 250.457 52.709 250.457C52.709 297.482 103.5 312.397 115.563 316.779V318.305C115.563 318.305 116.093 318.196 116.999 317.949C117.904 318.196 118.435 318.305 118.435 318.305V316.779C130.498 312.397 181.289 297.481 181.289 250.457C181.289 250.457 145.124 257.152 145.124 183.14Z" fill="#F3D8B6"/>
<path d="M145.124 183.14H118.435H117.188H117V317.949C117.905 318.196 118.436 318.305 118.436 318.305V316.779C130.499 312.397 181.29 297.481 181.29 250.457C181.29 250.457 145.124 257.152 145.124 183.14Z" fill="#EEC8A2"/>
<path d="M53.3809 123.544C54.2158 145.543 57.7003 165.437 61.7468 172.91C70.7234 189.483 90.7562 211.584 117.001 211.584C143.24 211.584 163.27 189.483 172.25 172.91C176.296 165.437 179.781 145.544 180.617 123.544H53.3809Z" fill="#F3DBC4"/>
<path d="M117 123.544V211.584H117.002C143.242 211.584 163.271 189.483 172.251 172.909C176.297 165.437 179.782 145.543 180.618 123.543L117 123.544Z" fill="#EDCEAE"/>
<path d="M183.103 61.7138C160.301 26.2714 123.172 27.972 117.001 27.9729C110.833 27.9729 73.6968 26.2704 50.8981 61.7138C46.4625 68.6085 42.8637 78.3366 40.2031 90.6279L54.757 93.7799C57.0393 83.2378 59.9541 75.1607 63.4228 69.7711C81.0115 42.4285 116.364 42.6826 117 42.6826C117.639 42.6826 153.017 42.4742 170.579 69.7711C174.045 75.1597 176.96 83.2368 179.243 93.7799L193.797 90.6279C191.135 78.3346 187.537 68.6066 183.103 61.7138Z" fill="white"/>
<path d="M183.103 61.7138C160.301 26.2714 123.172 27.972 117.001 27.9729L117 42.6817C117.639 42.6817 153.017 42.4732 170.579 69.7701C174.045 75.1588 176.96 83.2358 179.243 93.7789L193.797 90.6269C191.135 78.3346 187.537 68.6066 183.103 61.7138Z" fill="#DEDDE0"/>
<path d="M233.13 359.999H0.869141V319.606C0.869141 274.988 31.9891 238.819 76.6067 238.819L117 319.606L157.393 238.819C202.011 238.819 233.131 274.988 233.131 319.606L233.13 359.999Z" fill="#0097A9"/>
<path d="M157.393 238.82L117 319.606V359.999H233.13V319.606C233.13 274.989 202.01 238.82 157.393 238.82Z" fill="#277997"/>
<path d="M157.965 236.664L147.045 256.065L117.034 313.184L86.9552 256.065L78.0204 236.664C52.1709 253.065 46.4824 282.044 46.4824 282.044L93.696 360H140.304L187.518 282.044C187.518 282.044 183.815 253.065 157.965 236.664Z" fill="white"/>
<path d="M157.965 236.664L147.045 256.065L117.034 313.184L117 313.121V359.999H140.304L187.518 282.043C187.518 282.043 183.815 253.065 157.965 236.664Z" fill="#DEDDE0"/>
</svg>
