<svg width="100" height="100" viewBox="0 0 100 100" fill="none" xmlns="http://www.w3.org/2000/svg">
<g clip-path="url(#clip0_1076_9674)">
<rect width="100" height="100" rx="24" fill="#0097A9"/>
<path fill-rule="evenodd" clip-rule="evenodd" d="M52.44 78L52.1992 78V49L53.5 38V37.84H53.16L49.72 46.8L37.8 67.68H34.28L21.72 46.72L18.2 37.84H17.8L19.4 48.88V78H9V22H19L33.96 47.6L36.6 54H36.92L39.32 47.44L53.48 22H53.5H63H63.4V60.0001L63.5 69.5H95.5V78L63.4 78H52.44Z" fill="white"/>
<path d="M81.824 45.6H85.984V53.28H86.112C86.56 52.768 87.136 52.3627 87.84 52.064C88.544 51.7653 89.3227 51.616 90.176 51.616C92.096 51.616 93.5573 52.2773 94.56 53.6C95.584 54.9013 96.096 56.896 96.096 59.584C96.096 62.464 95.3813 64.6507 93.952 66.144C92.544 67.6373 90.6027 68.384 88.128 68.384C86.7627 68.384 85.5147 68.2667 84.384 68.032C83.2533 67.8187 82.4 67.5733 81.824 67.296V45.6ZM88.96 55.136C88.192 55.136 87.5627 55.3387 87.072 55.744C86.6027 56.128 86.24 56.6933 85.984 57.44V64.416C86.3253 64.5867 86.688 64.704 87.072 64.768C87.4773 64.832 87.904 64.864 88.352 64.864C89.4827 64.864 90.336 64.4587 90.912 63.648C91.5093 62.816 91.808 61.504 91.808 59.712C91.808 56.6613 90.8587 55.136 88.96 55.136Z" fill="white"/>
<path d="M66.728 52.928C67.5813 52.544 68.5947 52.2453 69.768 52.032C70.9413 51.7973 72.168 51.68 73.448 51.68C74.5573 51.68 75.4853 51.8187 76.232 52.096C76.9787 52.352 77.5653 52.7253 77.992 53.216C78.44 53.7067 78.7493 54.2933 78.92 54.976C79.112 55.6587 79.208 56.4267 79.208 57.28C79.208 58.2187 79.176 59.168 79.112 60.128C79.048 61.0667 79.0053 61.9947 78.984 62.912C78.984 63.8293 79.016 64.7253 79.08 65.6C79.144 66.4533 79.304 67.264 79.56 68.032H76.168L75.496 65.824H75.336C74.9093 66.4853 74.312 67.0613 73.544 67.552C72.7973 68.0213 71.8267 68.256 70.632 68.256C69.8853 68.256 69.2133 68.1493 68.616 67.936C68.0187 67.7013 67.5067 67.3813 67.08 66.976C66.6533 66.5493 66.3227 66.0587 66.088 65.504C65.8533 64.928 65.736 64.288 65.736 63.584C65.736 62.6027 65.9493 61.7813 66.376 61.12C66.824 60.4373 67.4533 59.8933 68.264 59.488C69.096 59.0613 70.0773 58.7733 71.208 58.624C72.36 58.4533 73.64 58.4 75.048 58.464C75.1973 57.2693 75.112 56.416 74.792 55.904C74.472 55.3707 73.7573 55.104 72.648 55.104C71.816 55.104 70.9307 55.1893 69.992 55.36C69.0747 55.5307 68.3173 55.7547 67.72 56.032L66.728 52.928ZM72.008 64.832C72.84 64.832 73.5013 64.6507 73.992 64.288C74.4827 63.904 74.8453 63.4987 75.08 63.072V60.992C74.4187 60.928 73.7787 60.9173 73.16 60.96C72.5627 61.0027 72.0293 61.0987 71.56 61.248C71.0907 61.3973 70.7173 61.6107 70.44 61.888C70.1627 62.1653 70.024 62.5173 70.024 62.944C70.024 63.5413 70.1947 64.0107 70.536 64.352C70.8987 64.672 71.3893 64.832 72.008 64.832Z" fill="white"/>
</g>
<defs>
<clipPath id="clip0_1076_9674">
<rect width="100" height="100" fill="white"/>
</clipPath>
</defs>
</svg>
