<svg width="25" height="25" viewBox="0 0 25 25" fill="none" xmlns="http://www.w3.org/2000/svg">
<g clip-path="url(#clip0_822_2302)">
<path fill-rule="evenodd" clip-rule="evenodd" d="M13.25 0.700962C13.022 0.569309 12.7633 0.5 12.5 0.5C12.2367 0.5 11.978 0.569309 11.75 0.700962L2.75 6.06646C2.52198 6.19811 2.33262 6.38746 2.20097 6.61548C2.06932 6.84351 2.00001 7.10216 2 7.36546V17.6345C2.00001 17.8978 2.06932 18.1564 2.20097 18.3844C2.33262 18.6125 2.52198 18.8018 2.75 18.9335L11.75 24.299C11.978 24.4306 12.2367 24.4999 12.5 24.4999C12.7633 24.4999 13.022 24.4306 13.25 24.299L22.25 18.9335C22.478 18.8018 22.6674 18.6125 22.799 18.3844C22.9307 18.1564 23 17.8978 23 17.6345V7.36546C23 7.10216 22.9307 6.84351 22.799 6.61548C22.6674 6.38746 22.478 6.19811 22.25 6.06646L13.25 0.700962Z" fill="url(#paint0_linear_822_2302)"/>
</g>
<defs>
<linearGradient id="paint0_linear_822_2302" x1="23" y1="12" x2="2" y2="12" gradientUnits="userSpaceOnUse">
<stop stop-color="#0097A9"/>
<stop offset="1" stop-color="#00E4FF" stop-opacity="0"/>
</linearGradient>
<clipPath id="clip0_822_2302">
<rect width="25" height="23.9999" fill="white" transform="translate(0 0.5)"/>
</clipPath>
</defs>
</svg>
