<svg width="12" height="12" viewBox="0 0 12 12" fill="none" xmlns="http://www.w3.org/2000/svg">
<path d="M0.145655 0.854632C0.099167 0.808144 0.0622909 0.752954 0.0371318 0.692215C0.0119727 0.631476 -0.000976562 0.566375 -0.000976562 0.500632C-0.000976563 0.434888 0.0119727 0.369788 0.0371318 0.309048C0.0622909 0.248309 0.099167 0.193119 0.145655 0.146631C0.192143 0.100144 0.247332 0.0632674 0.308072 0.0381083C0.368811 0.0129493 0.433911 -4.8983e-10 0.499655 0C0.565399 4.8983e-10 0.630499 0.0129493 0.691238 0.0381083C0.751978 0.0632674 0.807167 0.100144 0.853655 0.146631L5.99965 5.29363L11.1457 0.146631C11.1921 0.100144 11.2473 0.0632674 11.3081 0.0381083C11.3688 0.0129493 11.4339 0 11.4997 0C11.5654 0 11.6305 0.0129493 11.6912 0.0381083C11.752 0.0632674 11.8072 0.100144 11.8537 0.146631C11.9001 0.193119 11.937 0.248309 11.9622 0.309048C11.9873 0.369788 12.0003 0.434888 12.0003 0.500632C12.0003 0.566375 11.9873 0.631476 11.9622 0.692215C11.937 0.752954 11.9001 0.808144 11.8537 0.854632L6.70665 6.00063L11.8537 11.1466C11.9001 11.1931 11.937 11.2483 11.9622 11.309C11.9873 11.3698 12.0003 11.4349 12.0003 11.5006C12.0003 11.5664 11.9873 11.6315 11.9622 11.6922C11.937 11.753 11.9001 11.8081 11.8537 11.8546C11.8072 11.9011 11.752 11.938 11.6912 11.9632C11.6305 11.9883 11.5654 12.0013 11.4997 12.0013C11.4339 12.0013 11.3688 11.9883 11.3081 11.9632C11.2473 11.938 11.1921 11.9011 11.1457 11.8546L5.99965 6.70763L0.853655 11.8546C0.807167 11.9011 0.751978 11.938 0.691238 11.9632C0.630499 11.9883 0.565399 12.0013 0.499655 12.0013C0.433911 12.0013 0.368811 11.9883 0.308072 11.9632C0.247332 11.938 0.192143 11.9011 0.145655 11.8546C0.099167 11.8081 0.0622909 11.753 0.0371318 11.6922C0.0119727 11.6315 -0.000976563 11.5664 -0.000976562 11.5006C-0.000976562 11.4349 0.0119727 11.3698 0.0371318 11.309C0.0622909 11.2483 0.099167 11.1931 0.145655 11.1466L5.29265 6.00063L0.145655 0.854632Z" fill="#290661"/>
</svg>
