<svg width="40" height="26" viewBox="0 0 40 26" fill="none" xmlns="http://www.w3.org/2000/svg">
<path d="M0 1.75C0 1.41848 0.131696 1.10054 0.366117 0.866117C0.600537 0.631696 0.918479 0.5 1.25 0.5H38.75C39.0815 0.5 39.3995 0.631696 39.6339 0.866117C39.8683 1.10054 40 1.41848 40 1.75V6.75C40 7.08152 39.8683 7.39946 39.6339 7.63388C39.3995 7.8683 39.0815 8 38.75 8H1.25C0.918479 8 0.600537 7.8683 0.366117 7.63388C0.131696 7.39946 0 7.08152 0 6.75V1.75ZM0 14.25C0 13.9185 0.131696 13.6005 0.366117 13.3661C0.600537 13.1317 0.918479 13 1.25 13H38.75C39.0815 13 39.3995 13.1317 39.6339 13.3661C39.8683 13.6005 40 13.9185 40 14.25V16.75C40 17.0815 39.8683 17.3995 39.6339 17.6339C39.3995 17.8683 39.0815 18 38.75 18H1.25C0.918479 18 0.600537 17.8683 0.366117 17.6339C0.131696 17.3995 0 17.0815 0 16.75V14.25ZM0 24.25C0 23.9185 0.131696 23.6005 0.366117 23.3661C0.600537 23.1317 0.918479 23 1.25 23H38.75C39.0815 23 39.3995 23.1317 39.6339 23.3661C39.8683 23.6005 40 23.9185 40 24.25C40 24.5815 39.8683 24.8995 39.6339 25.1339C39.3995 25.3683 39.0815 25.5 38.75 25.5H1.25C0.918479 25.5 0.600537 25.3683 0.366117 25.1339C0.131696 24.8995 0 24.5815 0 24.25Z" fill="#0097A9"/>
</svg>
