<svg width="24" height="23" viewBox="0 0 24 23" fill="none" xmlns="http://www.w3.org/2000/svg">
<path fill-rule="evenodd" clip-rule="evenodd" d="M4.455 1.025C4.59583 0.860352 4.77066 0.728166 4.96745 0.637537C5.16425 0.546907 5.37834 0.499986 5.595 0.5H18.405C18.6217 0.499986 18.8358 0.546907 19.0325 0.637537C19.2293 0.728166 19.4042 0.860352 19.545 1.025L23.4585 5.591C23.8079 5.99875 24 6.51802 24 7.055V7.4375C24.0001 8.17996 23.7682 8.9039 23.3367 9.50813C22.9053 10.1124 22.2958 10.5667 21.5935 10.8076C20.8912 11.0485 20.1312 11.064 19.4197 10.8519C18.7082 10.6398 18.0807 10.2107 17.625 9.6245C17.2922 10.0532 16.8657 10.4 16.3783 10.6384C15.8908 10.8768 15.3552 11.0005 14.8125 11C14.2698 11.0006 13.7342 10.877 13.2467 10.6385C12.7592 10.4001 12.3327 10.0532 12 9.6245C11.6673 10.0532 11.2408 10.4001 10.7533 10.6385C10.2658 10.877 9.73019 11.0006 9.1875 11C8.64481 11.0006 8.10919 10.877 7.62168 10.6385C7.13416 10.4001 6.70771 10.0532 6.375 9.6245C5.91929 10.2107 5.29182 10.6398 4.58031 10.8519C3.86879 11.064 3.10877 11.0485 2.40649 10.8076C1.7042 10.5667 1.09473 10.1124 0.663273 9.50813C0.231813 8.9039 -8.18979e-05 8.17996 2.16968e-08 7.4375V7.055C1.89113e-05 6.51802 0.192085 5.99875 0.5415 5.591L4.4565 1.0235L4.455 1.025ZM7.125 7.4375C7.125 7.98451 7.3423 8.50911 7.72909 8.89591C8.11589 9.2827 8.64049 9.5 9.1875 9.5C9.73451 9.5 10.2591 9.2827 10.6459 8.89591C11.0327 8.50911 11.25 7.98451 11.25 7.4375C11.25 7.23859 11.329 7.04782 11.4697 6.90717C11.6103 6.76652 11.8011 6.6875 12 6.6875C12.1989 6.6875 12.3897 6.76652 12.5303 6.90717C12.671 7.04782 12.75 7.23859 12.75 7.4375C12.75 7.98451 12.9673 8.50911 13.3541 8.89591C13.7409 9.2827 14.2655 9.5 14.8125 9.5C15.3595 9.5 15.8841 9.2827 16.2709 8.89591C16.6577 8.50911 16.875 7.98451 16.875 7.4375C16.875 7.23859 16.954 7.04782 17.0947 6.90717C17.2353 6.76652 17.4261 6.6875 17.625 6.6875C17.8239 6.6875 18.0147 6.76652 18.1553 6.90717C18.296 7.04782 18.375 7.23859 18.375 7.4375C18.375 7.98451 18.5923 8.50911 18.9791 8.89591C19.3659 9.2827 19.8905 9.5 20.4375 9.5C20.9845 9.5 21.5091 9.2827 21.8959 8.89591C22.2827 8.50911 22.5 7.98451 22.5 7.4375V7.055C22.5 6.87624 22.4362 6.70336 22.32 6.5675L18.405 2H5.595L1.68 6.5675C1.56382 6.70336 1.49999 6.87624 1.5 7.055V7.4375C1.5 7.98451 1.7173 8.50911 2.10409 8.89591C2.49089 9.2827 3.01549 9.5 3.5625 9.5C4.10951 9.5 4.63411 9.2827 5.02091 8.89591C5.4077 8.50911 5.625 7.98451 5.625 7.4375C5.625 7.23859 5.70402 7.04782 5.84467 6.90717C5.98532 6.76652 6.17609 6.6875 6.375 6.6875C6.57391 6.6875 6.76468 6.76652 6.90533 6.90717C7.04598 7.04782 7.125 7.23859 7.125 7.4375ZM2.25 11.75C2.44891 11.75 2.63968 11.829 2.78033 11.9697C2.92098 12.1103 3 12.3011 3 12.5V21.5H21V12.5C21 12.3011 21.079 12.1103 21.2197 11.9697C21.3603 11.829 21.5511 11.75 21.75 11.75C21.9489 11.75 22.1397 11.829 22.2803 11.9697C22.421 12.1103 22.5 12.3011 22.5 12.5V21.5H23.25C23.4489 21.5 23.6397 21.579 23.7803 21.7197C23.921 21.8603 24 22.0511 24 22.25C24 22.4489 23.921 22.6397 23.7803 22.7803C23.6397 22.921 23.4489 23 23.25 23H0.75C0.551088 23 0.360322 22.921 0.21967 22.7803C0.0790177 22.6397 2.16968e-08 22.4489 2.16968e-08 22.25C2.16968e-08 22.0511 0.0790177 21.8603 0.21967 21.7197C0.360322 21.579 0.551088 21.5 0.75 21.5H1.5V12.5C1.5 12.3011 1.57902 12.1103 1.71967 11.9697C1.86032 11.829 2.05109 11.75 2.25 11.75ZM5.25 12.5C5.44891 12.5 5.63968 12.579 5.78033 12.7197C5.92098 12.8603 6 13.0511 6 13.25V18.5H18V13.25C18 13.0511 18.079 12.8603 18.2197 12.7197C18.3603 12.579 18.5511 12.5 18.75 12.5C18.9489 12.5 19.1397 12.579 19.2803 12.7197C19.421 12.8603 19.5 13.0511 19.5 13.25V18.5C19.5 18.8978 19.342 19.2794 19.0607 19.5607C18.7794 19.842 18.3978 20 18 20H6C5.60218 20 5.22064 19.842 4.93934 19.5607C4.65804 19.2794 4.5 18.8978 4.5 18.5V13.25C4.5 13.0511 4.57902 12.8603 4.71967 12.7197C4.86032 12.579 5.05109 12.5 5.25 12.5Z" fill="#FF6A13"/>
</svg>
